# xmcd
#
# Track frame offsets:
#	150
#	4512
#	23857
#	41800
#	56508
#	71698
#	90544
#	117774
#	137243
#	166419
#	187581
#	212505
#
# Disc length: 3105 seconds
#
# Revision: 1
# Processed by: cddbd v1.5.2PL0 Copyright (c) Steve Scherf et al.
# Submitted via: audiograbber 1.83.01
#
DISCID=970c1f0c
DTITLE=The GAP-Project -  So close and yet so far away
DYEAR=2017
DGENRE=Blues
TTITLE0=So close, so far 
TTITLE1=Another Place    
TTITLE2=Lass es sein 
TTITLE3=Hamster Wheel   
TTITLE4=Let me be your Lover   
TTITLE5=Momo's Song   
TTITLE6=Schluss, aus, okay   
TTITLE7=Blue Skies   
TTITLE8=Point of no Return 
TTITLE9=Mejor
TTITLE10=So close and yet so far away  (Birgit's Song)
TTITLE11=So close and yet so far away  (live - instr.)
EXTD=
EXTT0=
EXTT1=
EXTT2=
EXTT3=
EXTT4=
EXTT5=
EXTT6=
EXTT7=
EXTT8=
EXTT9=
EXTT10=
EXTT11=
PLAYORDER=
